<svg height="495pt" viewBox="0 -7 495.592 495" width="495pt" xmlns="http://www.w3.org/2000/svg"><path d="m495.59375 224.296875h-32c0-105.871094-86.128906-192-192-192-105.875 0-192 86.128906-192 192h-32c0-123.519531 100.476562-224 224-224 123.519531 0 224 100.480469 224 224zm0 0" fill="#fdd835"/><path d="m315.449219 428.007812-6.226563-31.375c9.601563-1.90625 19.152344-4.59375 28.371094-7.96875l11.007812 30.03125c-10.753906 3.96875-21.921874 7.105469-33.152343 9.3125zm64.480469-23.617187-15.488282-28c8.542969-4.734375 16.832032-10.191406 24.621094-16.222656l19.617188 25.28125c-9.085938 7.054687-18.769532 13.421875-28.75 18.941406zm54.269531-42.015625-23.230469-22c6.75-7.136719 13.023438-14.847656 18.625-22.925781l26.300781 18.222656c-6.542969 9.425781-13.839843 18.398437-21.695312 26.703125zm39.058593-56.429688-28.800781-13.96875c4.285157-8.832031 7.917969-18.082031 10.78125-27.457031l30.609375 9.34375c-3.359375 10.960938-7.601562 21.761719-12.589844 32.082031zm0 0" fill="#fbc02d"/><path d="m263.59375 480.296875c-8.832031 0-16-7.167969-16-16v-128c0-8.832031 7.167969-16 16-16s16 7.167969 16 16v128c0 8.832031-7.167969 16-16 16zm0 0" fill="#42a5f5"/><path d="m62.136719 267.480469-57.457031-57.457031c-6.238282-6.238282-6.238282-16.382813 0-22.625 6.242187-6.238282 16.382812-6.238282 22.625 0l34.832031 34.832031 34.832031-34.832031c6.238281-6.238282 16.382812-6.238282 22.625 0 6.238281 6.242187 6.238281 16.386718 0 22.625zm0 0" fill="#fbc02d"/></svg>