<svg fill="#ffffff" width="50px" height="50px" xmlns="http://www.w3.org/2000/svg" data-name="Layer 1" viewBox="0 -3 24 30">
  <path d="M12.02307,24a12.03049,12.03049,0,0,0,11.9726-10.897A1.00987,1.00987,0,0,0,22.99286,12H20.97894a.99114.99114,0,0,0-.98858.87836A8.01551,8.01551,0,1,1,12.02307,4a7.92333,7.92333,0,0,1,3.72449.93347.17884.17884,0,0,1,.01855.30017L13.826,6.64722a.32024.32024,0,0,0,.09631.59344L21.57745,8.3562a.40561.40561,0,0,0,.46039-.45953L20.92023.25616A.32121.32121,0,0,0,20.32568.16l-1.33746,1.8866a.169.169,0,0,1-.23462.04144A11.91713,11.91713,0,0,0,11.64319.00586,12.12,12.12,0,0,0,.0083,11.5498,12.02331,12.02331,0,0,0,12.02307,24Z"/>
</svg>